<svg width="2975" height="1700" viewBox="0 0 2975 1700" fill="none" xmlns="http://www.w3.org/2000/svg">
<g id="5236-ai 1" clip-path="url(#clip0_0_1)">
<path id="Vector" d="M327.6 1532.5C327.6 1532.5 44.9 930.5 602 930.5C896.4 930.5 775.1 765.3 975.3 574.2C1175.4 383 1875.3 230.3 2024.3 599.4C2173.3 968.5 1805.1 1248.8 2160.9 1200.7C2588.4 1142.9 2757.3 1532.5 2757.3 1532.5H327.6Z" fill="#EF120E" fill-opacity="0.17"/>
<path id="Vector_2" d="M2617.1 1456.1C2590.7 1436.8 2536.8 1449.8 2497 1463.7C2491.1 1455.4 2483.9 1446.8 2475.1 1438.4C2560.8 1383.2 2679.2 1265.4 2616.5 1255.4C2561.9 1246.8 2488.3 1352.8 2449 1417.3C2408.2 1389.8 2345.6 1369.6 2250 1376.6C2002 1394.8 1808.2 1234.8 1665.4 1288.2C1551.9 1330.6 1447.8 1354.4 1347.4 1346.2C1351.8 1272.9 1352.7 1129 1295.1 1114C1236.7 1098.9 1294 1262.4 1325.9 1344C1318.43 1343.07 1310.97 1341.93 1303.5 1340.6C1282.9 1299.9 1248.9 1246.6 1211.5 1244.8C1176.4 1243.1 1219.8 1291 1262.5 1331.5C1139.7 1305.8 994.1 1405.5 991.7 1523.5H2524C2524 1523.5 2521.3 1506.3 2509.2 1483.6C2568.5 1482.4 2645.7 1477 2617.1 1456.1Z" fill="#A8D29F"/>
<path id="Vector_3" d="M1484.8 1523.5H1785.5V1103.2H1484.8V1523.5Z" fill="#E5422C"/>
<path id="Vector_4" d="M1392.1 1523.5H1692.8V1103.2H1392.1V1523.5Z" fill="#ED5743"/>
<path id="Vector_5" d="M818 1532H1188V1432H818V1532Z" fill="#ED5743"/>
<path id="Vector_6" d="M1185 1529H1278V1432H1185V1529Z" fill="#E5422C"/>
<path id="Vector_7" d="M1692.8 1103.2L1785.5 1166.3V1103.2H1692.8Z" fill="#D01B1B"/>
<path id="Vector_8" d="M1185 1432L1278 1495V1432H1185Z" fill="#D01B1B"/>
<path id="Vector_9" d="M764.6 1196.3C764.6 1196.3 708.3 1238.1 697.4 1235.6C686.4 1233 738.5 1190.4 738.5 1190.4C718.9 1181 658 1186.9 658 1186.9C658 1186.9 637.7 1252.3 627.7 1247.2C617.7 1242 648.6 1190.2 648.6 1190.2C626.8 1188.8 600 1205 600 1205C563.4 1234 602.4 1279.5 602.4 1279.5C602.4 1279.5 594.9 1302 571.8 1322.6C571.8 1322.6 538.7 1347 536.4 1390.7L542.4 1391.2C542.4 1391.2 551.9 1350.5 569.2 1331.3C569.9 1330.6 570.9 1329.6 572.1 1328.4C574.9 1325.8 576.8 1323.8 578.2 1322.4C586.8 1314.1 598.7 1303.6 604.4 1302.5C604.4 1302.5 604.1 1301.5 604.1 1299.7C604.167 1300.57 604.267 1301.5 604.4 1302.5C606.3 1325.6 651 1345.7 678.5 1349.8C706 1353.9 697.5 1342.7 688 1325.9C678.5 1309.2 648.6 1301.7 641.7 1294C634.9 1286.2 649 1286.2 665.6 1293.8C682.1 1301.3 684.4 1321.5 711 1334.2C737.5 1346.9 777.5 1302.9 777.5 1302.9C756.3 1301.8 726.1 1278.8 727.2 1271.8C728.3 1264.7 778.5 1283.9 787.1 1284.8C795.7 1285.8 815.2 1275.1 818.2 1240.5C821.2 1205.9 764.6 1196.3 764.6 1196.3Z" fill="#82B378"/>
<path id="Vector_10" d="M465.9 1222.2C465.9 1222.2 528 1187.5 499 1140.2C499 1140.2 475.8 1111.3 451 1103.8C451 1103.8 464.2 1174.2 451 1175.9C437.7 1177.5 441.9 1096.4 441.9 1096.4C441.9 1096.4 376.5 1064.9 350.8 1067.4C350.8 1067.4 391.4 1136.1 378.1 1134.5C364.9 1132.8 319.3 1063.2 319.3 1063.2C319.3 1063.2 252.2 1050.8 241.5 1090.6C230.7 1130.3 248.1 1150.2 258 1152.7C268 1155.2 331.7 1154.3 330.1 1162.6C328.4 1170.9 285.4 1184.1 261.3 1176.7C261.3 1176.7 287.8 1242.1 322.6 1238.8C357.4 1235.5 368.2 1214 389.7 1212.3C411.2 1210.6 427 1216.4 416.2 1222.2C405.4 1228 369 1224.1 351.6 1238.9C334.2 1253.7 320.1 1262.8 352.4 1269.4C384.7 1276.1 442.7 1271.9 454.3 1247.1C465.9 1222.2 465.9 1222.2 465.9 1222.2Z" fill="#A8D29F"/>
<path id="Vector_11" d="M482.5 1282.7C465.1 1250.4 465.9 1222.2 465.9 1222.2C446 1159.3 272.1 1103 272.1 1103C493.2 1192.4 454.3 1247.1 454.3 1247.1C460.3 1250.6 469.2 1267.1 475.4 1279.9C476.3 1282 477.7 1285 479.8 1289.1C480.6 1290.9 481.3 1292.4 481.7 1293.5C493.1 1322 487.1 1371.1 487.1 1371.1L494 1373C509.3 1323.4 482.5 1282.7 482.5 1282.7Z" fill="#82B378"/>
<path id="Vector_12" d="M564.7 1174.3C564.7 1174.3 482.8 1128.4 521 1066.2C521 1066.2 551.6 1028 584.4 1018.2C584.4 1018.2 566.9 1110.9 584.4 1113.1C601.8 1115.3 596.4 1008.3 596.4 1008.3C596.4 1008.3 682.6 966.8 716.5 970.1C716.5 970.1 663 1060.7 680.4 1058.5C697.9 1056.4 757.9 964.7 757.9 964.7C757.9 964.7 846.4 948.3 860.6 1000.7C874.8 1053.1 851.8 1079.3 838.7 1082.6C825.6 1085.8 741.6 1084.7 743.7 1095.7C745.9 1106.6 802.7 1124 834.4 1114.2C834.4 1114.2 799.4 1200.5 753.6 1196.1C707.7 1191.7 693.5 1163.3 665.1 1161.2C636.8 1159 616 1166.6 630.2 1174.3C644.4 1181.9 692.4 1176.8 715.4 1196.3C738.3 1215.8 756.9 1227.8 714.3 1236.5C671.7 1245.2 595.3 1239.8 580 1207C564.7 1174.3 564.7 1174.3 564.7 1174.3Z" fill="#A8D29F"/>
<path id="Vector_13" d="M820.2 1017.1C820.2 1017.1 590.9 1091.3 564.7 1174.3C564.7 1174.3 565.8 1211.4 542.9 1254C542.9 1254 507.5 1307.6 527.7 1373L536.8 1370.6C536.8 1370.6 528.8 1305.7 543.8 1268.2C544.4 1266.8 545.3 1264.8 546.4 1262.4C549.2 1257 551 1253.1 552.2 1250.2C560.4 1233.4 572.1 1211.6 580 1207C580 1207 528.7 1135 820.2 1017.1Z" fill="#82B378"/>
<path id="Vector_14" d="M562 1514.7C650.5 1514.7 722.3 1442.9 722.3 1354.3H401.6C401.6 1442.9 473.4 1514.7 562 1514.7Z" fill="#C92B2B"/>
<path id="Vector_15" d="M601.4 1513.5C594.867 1514.3 588.233 1514.7 581.5 1514.7C492.9 1514.7 421.1 1442.9 421.1 1354.3H461C461 1436.2 522.2 1503.7 601.4 1513.5Z" fill="#EE9185"/>
<path id="Vector_16" d="M704.8 1503.7H419.1C408.2 1503.7 399.4 1512.6 399.4 1523.5H724.6C724.6 1512.6 715.7 1503.7 704.8 1503.7Z" fill="#C92B2B"/>
<path id="Vector_17" d="M723.5 1354.3H398.8C397.4 1354.3 396.3 1355.4 396.3 1356.8C396.3 1358.2 397.4 1359.3 398.8 1359.3H723.5C724.9 1359.3 726 1358.2 726 1356.8C726 1355.4 724.9 1354.3 723.5 1354.3Z" fill="#CB2323"/>
<path id="Vector_18" d="M1961.1 509.8C1956.5 509.1 1942.5 522 1942.5 522C1912.6 525.5 1868.8 533.4 1853.1 536.5C1841.9 538.6 1811.9 528.4 1782.6 516.6C1747.7 502.6 1713.8 486.5 1713.8 486.5C1694.5 485.5 1672.5 520.8 1711.8 543.3C1717.7 546.7 1740.3 552.5 1766.2 557.9C1801.9 565.2 1844.2 571.6 1858.5 569.4C1875.2 566.8 1922.5 549.5 1950.6 536.3C1950.6 536.3 1950.63 536.267 1950.7 536.2C1950.77 536.133 1950.87 536.1 1951 536.1C1952.7 535.3 1959.6 532.2 1964.2 532.5C1969.4 532.8 1981.2 523.2 1981.5 520.6C1981.9 518 1965.8 510.5 1961.1 509.8Z" fill="#ED975D"/>
<path id="Vector_19" d="M1924.6 954.5L1908.1 957.8C1908.1 957.8 1832.8 873.1 1821.1 837.5C1814.9 818.5 1775.1 810.2 1733.5 799.5C1697.4 790.1 1659.8 778.8 1641.9 756.8C1603.3 709.6 1666.1 651.5 1666.1 651.5C1666.1 651.5 1732.8 691.2 1790.4 732.1C1830.6 760.8 1866.4 790 1871.7 806.8C1884.8 847.8 1912.6 925.5 1924.6 954.5Z" fill="#4F83A4"/>
<path id="Vector_20" d="M1902.6 982.4H1911.8C1914.9 981.9 1917.2 981 1920.4 980.6C1925.2 980 1927.5 981.9 1927.9 982.4C1927.97 982.467 1928 982.5 1928 982.5H1967.3C1968.3 981.1 1967.4 977.8 1966.5 975.4C1965.8 973.8 1964.5 972.5 1962.8 972C1958.6 970.8 1950.4 969.7 1942.8 962.9C1938.6 959.1 1922.4 948.8 1922.4 948.8H1922.3C1921.9 948.8 1920.2 949.3 1912.8 955.6C1909 958.8 1902.5 951 1902.5 951C1902.5 951 1901.3 952 1900.4 953.9C1899.7 955.4 1899.1 957.5 1899.5 960C1900.1 963.5 1898.2 970.1 1896.7 974.6C1895.8 977.3 1895 979.2 1895 979.2C1895 979.2 1894.6 981.4 1902.6 982.4Z" fill="#0E0F0F"/>
<path id="Vector_21" d="M1790.4 732.1L1733.5 799.5C1697.4 790.1 1659.8 778.8 1641.9 756.8C1603.3 709.6 1666.1 651.5 1666.1 651.5C1666.1 651.5 1732.8 691.2 1790.4 732.1Z" fill="#426D88"/>
<path id="Vector_22" d="M1738.7 697C1738.7 697 1734.1 711.4 1726.7 733.1C1717.3 760.6 1703.2 799.7 1688 836C1684.6 844 1681.2 851.8 1677.8 859.4C1665.1 887.3 1652.2 911.2 1640.7 923.4C1620.2 945.2 1570.4 1085.8 1570.4 1085.8L1557.9 1082.4C1557.9 1082.4 1540.6 962.3 1602 894C1602.6 893.3 1603.2 892.5 1603.2 891.5C1604 881.4 1607 836.1 1613.3 790.2C1614.9 778.9 1616.7 767.7 1618.6 756.8C1618.73 756.133 1618.87 755.467 1619 754.8C1628.4 704.8 1637.3 682.5 1648.8 671.4L1733.7 695.5L1738.7 697Z" fill="#4F83A4"/>
<path id="Vector_23" d="M1556.5 1103.1H1565.8C1568.9 1102.6 1571.2 1101.7 1574.4 1101.3C1579.2 1100.6 1581.4 1102.6 1581.9 1103.1C1581.97 1103.17 1582 1103.2 1582 1103.2H1621.3C1622.3 1101.8 1621.4 1098.5 1620.4 1096.1C1619.8 1094.4 1618.4 1093.2 1616.7 1092.7C1612.6 1091.5 1604.3 1090.4 1596.8 1083.6C1592.6 1079.8 1576.3 1069.5 1576.3 1069.5C1575.9 1069.5 1574.2 1070 1566.8 1076.3C1563 1079.5 1556.5 1071.7 1556.5 1071.7C1556.5 1071.7 1555.3 1072.7 1554.4 1074.6C1553.6 1076.1 1553.1 1078.1 1553.5 1080.6C1554.1 1084.2 1552.2 1090.8 1550.7 1095.2C1549.8 1097.9 1549 1099.9 1549 1099.9C1549 1099.9 1548.6 1102.1 1556.5 1103.1Z" fill="#0A0A0B"/>
<path id="Vector_24" d="M1574.7 533.7C1574.7 533.7 1560.5 568.4 1544.2 602.3C1530.4 630.7 1515.1 658.4 1505.4 664.4C1491.7 672.7 1454 696.3 1429.6 713.9C1429.6 713.9 1410.5 713.7 1407.6 717.4C1404.6 721 1397.8 737.5 1399.7 739.1C1401.7 740.8 1416.9 740 1420.6 736.2C1423.8 732.9 1431 730.6 1432.7 730C1432.83 730 1432.97 729.967 1433.1 729.9C1462.9 720.8 1509.4 701.7 1523.6 692.4C1535.7 684.4 1562.6 651.2 1584.1 621.7C1599.7 600.3 1612.4 580.8 1614.5 574.3C1628.4 531.3 1588.4 520 1574.7 533.7Z" fill="#FFB27D"/>
<path id="Vector_25" d="M1649 397.5C1647.33 395.033 1645.63 392.833 1643.9 390.9C1646 391 1648.3 390.8 1650.2 390C1655.2 387.9 1657.4 372.1 1656.7 367.4C1655.9 362.7 1649 349.1 1640.5 347.8C1631.9 346.4 1623.1 355.9 1623.1 355.9C1624.7 349.1 1639.1 345.1 1639.1 345.1C1609.4 350.6 1610.9 370.5 1611.1 372.3C1583.9 362.6 1567.9 413.9 1567.9 413.9L1638.4 455.4C1638.4 455.4 1638.6 444.1 1645.4 444.8C1655.9 446 1664.6 420.2 1649 397.5Z" fill="#2C3A64"/>
<path id="Vector_26" d="M1653.5 505.1C1637.3 512.7 1615.8 501.8 1615.9 501.6C1617.3 500.2 1616.8 496.1 1615.6 490.7C1614.3 485 1611.3 477.2 1605.7 468C1604.6 466 1603.4 464.1 1602 462L1603.9 461.3L1635.3 448.7C1635.3 448.7 1640.4 457.8 1645.7 466.1C1650.3 473.1 1655 479.3 1657.1 479.1C1657.2 479 1678 493.3 1653.5 505.1Z" fill="#FFB27D"/>
<path id="Vector_27" d="M1635.3 451.8C1634.5 463 1630.7 483.3 1615.6 490.7C1614.3 485 1611.3 477.2 1605.7 468L1635.3 451.8Z" fill="#ED975D"/>
<path id="Vector_28" d="M1603.9 480.8C1603.9 480.8 1644.8 464.6 1634.4 439.3C1624 413.9 1622.2 394.8 1595.6 404C1569 413.2 1568 425 1569.4 434.3C1570.8 443.6 1593 484.3 1603.9 480.8Z" fill="#FFB27D"/>
<path id="Vector_29" d="M1619.2 433.5C1638.1 430.8 1643.6 423.2 1643.6 423.2C1643.6 423.2 1626.2 418.2 1616 401.1C1616 401.1 1594.7 394 1579 406C1578 407.2 1577.3 408.7 1577 410.4C1573.4 409.2 1567.9 409.5 1564.8 419.7C1560.1 435 1576.8 451.8 1576.8 451.8C1580.9 450.6 1576.3 437 1575.7 429.7C1575.2 424.3 1578.1 417.5 1579.7 414.2C1581.7 416.8 1601.6 441.9 1626 442.9C1626 442.9 1613.1 438.4 1601.4 429.7C1607.2 432.5 1613.4 434.3 1619.2 433.5Z" fill="#2C3A64"/>
<path id="Vector_30" d="M1731.5 557.3C1731.1 556.1 1730.7 554.833 1730.3 553.5C1736.4 541.9 1739.4 531.4 1740.7 522.6C1743.4 503.8 1738.7 492.3 1738.7 492.3C1738.7 492.3 1710.3 477.2 1697.8 475.3C1697.73 475.3 1697.67 475.3 1697.6 475.3C1697.47 475.233 1697.3 475.2 1697.1 475.2C1684.5 473.5 1657 479.1 1657 479.1C1657 479.1 1662.3 493.1 1647.4 502.5C1632.5 511.9 1616.6 500.1 1616.6 500.1C1616.07 500.433 1615.57 500.8 1615.1 501.2C1615.1 501.2 1575.8 527 1572.3 533C1568.8 538.9 1553.7 568.2 1553.7 568.2C1553.7 568.2 1558.5 592.8 1611.5 594.8C1615.8 605.4 1619.2 615.7 1620.3 624.3C1624.5 657.7 1619.6 684 1624.5 703.5C1629.4 723 1717.8 711.9 1733.9 708.1C1749.9 704.4 1746.3 687.3 1747.5 670.7C1749.1 649.8 1736.7 575.7 1731.5 557.3Z" fill="#F21111"/>
<path id="Vector_31" d="M1740.7 522.6C1739.4 531.5 1736.4 542 1730.3 553.7C1728.9 547.5 1723.2 525.1 1714.1 514.9C1714.1 514.9 1729.5 516.3 1740.7 522.6Z" fill="#F21111"/>
<path id="Vector_32" d="M1090.4 695.3C1090.4 695.3 1114.1 723.4 1144.2 711.6C1144.2 711.6 1150.7 695.9 1150.8 684.4C1150.8 682.933 1150.8 681.533 1150.8 680.2C1151 667.2 1151.4 659.9 1151.4 659.9C1150 659.3 1105.3 641 1105.4 642.5C1106.1 677.7 1090.4 695.3 1090.4 695.3Z" fill="#FFB27D"/>
<path id="Vector_33" d="M1109.9 650.9C1114.2 658.9 1129 674.5 1150.8 680.2C1151 667.2 1151.4 659.9 1151.4 659.9C1150.2 659.6 1108.6 648.5 1109.9 650.9Z" fill="#ED975D"/>
<path id="Vector_34" d="M1187.9 811.3C1187.6 828 1186.7 846.7 1185.4 865.7C1185.27 866.833 1185.17 867.967 1185.1 869.1C1120.5 828.7 1110.6 754.7 1110.6 754.7C1142.3 756.1 1167.6 763.4 1187 773.8C1188 784 1188.2 796.9 1187.9 811.3Z" fill="#F21111"/>
<g id="Homen1">
<path id="h1sapato_direito" d="M975.8 1432.3H945.4C939 1432.3 931.9 1425.8 930.1 1414C928.3 1402.1 915.2 1395.6 912.4 1385.9C909.5 1376.2 924.1 1362.6 924.1 1362.6L926.5 1359.4L929.1 1356.1L953.2 1361.8C953.2 1361.8 953.8 1367.7 954.1 1375.1C954.4 1380.4 954.5 1386.6 954.2 1392C953.5 1405 957.8 1418.9 969.2 1421.4C980.5 1424 975.8 1432.3 975.8 1432.3Z" fill="#91470A"/>
<path id="h1sapato_esquerdo" d="M1187.8 1432.6H1107.1C1106.3 1432.47 1105.73 1432.3 1105.4 1432.1C1100 1429.3 1101.7 1408.1 1102.3 1401.5C1102.4 1400.3 1102.5 1399.6 1102.5 1399.6C1102.5 1399.6 1130.9 1376.2 1134.8 1394.1C1134.93 1394.63 1135.07 1395.2 1135.2 1395.8C1140.2 1412.5 1162.2 1420.1 1174.9 1422.2C1184.6 1423.9 1187.1 1429.7 1187.8 1432.6Z" fill="#90470A"/>
<path id="h1perna_esquerda" d="M1171.5 965.9C1171.5 965.9 1167.2 1019.6 1162.2 1084.3C1155.3 1172.1 1147 1280 1146.2 1300.4C1144.7 1335.9 1139.1 1392.6 1139.1 1392.6C1139.1 1392.6 1125.6 1406.1 1098.6 1400.4C1098.6 1400.4 1074.6 1319.4 1067.7 1233.7C1067.63 1232.3 1067.53 1230.87 1067.4 1229.4C1061 1142.2 1051.1 958.4 1051.1 958.4L1171.5 965.9Z" fill="#EE9849"/>
<path id="h1perna_esquerda2" d="M1171.5 965.9C1171.5 965.9 1167.2 1019.6 1162.2 1084.3L1067.7 1233.7C1067.63 1232.3 1067.53 1230.87 1067.4 1229.4C1061 1142.2 1051.1 958.4 1051.1 958.4L1171.5 965.9Z" fill="#E58638"/>
<path id="h1perna_direita" d="M1151.8 972.2C1151.8 972.2 1074.1 1167 1023.1 1258.5C972 1350.1 956 1375.6 956 1375.6C956 1375.6 926.7 1363.9 924.1 1355.9C924.1 1355.9 943.6 1179.2 977.8 1136.1C997.2 1111.8 1019.9 1038.8 1020.9 1013.2C1022 987.7 1027.9 937.1 1027.9 937.1L1151.8 972.2Z" fill="#EE9849"/>
<path id="h1braco_direito" d="M965.6 946C974.2 948.7 975.6 948.1 975.6 948.1C975.6 948.1 1017.5 871.9 1021.7 864.9C1025.9 858 1110.6 779.5 1110.6 779.5L1088.8 698.4C1088.8 698.4 992.6 823 982.2 840.9C965 870.5 954.9 939.1 954.9 939.1C954.9 939.1 958.9 943.8 965.6 946Z" fill="#F21111"/>
<path id="h1tronco" d="M1187.9 811.3C1187.6 828 1186.7 846.7 1185.4 865.7C1185.27 866.833 1185.17 867.967 1185.1 869.1C1184.3 880.9 1183.4 892.7 1182.3 904.2C1181.9 908.8 1181.47 913.367 1181 917.9L1180.9 918.5C1180.9 920.1 1180.7 922 1180.5 923.6C1176.3 966.7 1171.8 1000.8 1171 1001.3C1170 1002 1168.9 1002.3 1167.7 1002.2C1156.4 1000.8 1122.6 1003.3 1095 997.3C1071.7 992.4 1051.6 983.1 1030.4 970.5C1027.5 968.8 1021.1 964.4 1021.6 961.1C1022.1 957.5 1023.1 952.2 1024.3 945.6C1028.5 922.7 1035.7 883.2 1038.2 837.1C1038.67 828.433 1039.37 819.933 1040.3 811.6C1042.6 789.9 1046.4 769.2 1051.5 750.8C1061 716.7 1074.9 690.6 1092.4 680.4C1094.7 679.1 1106.9 686.9 1118.2 694.2C1128.6 700.8 1139.6 702.7 1150.3 701.7L1159.6 712.1C1171 725.3 1183.1 742.9 1186.4 767.9C1186.67 769.767 1186.87 771.733 1187 773.8C1188 784 1188.2 796.9 1187.9 811.3Z" fill="#F21111"/>
<path id="h1braco_esquerdo" d="M1390.3 743.4C1387 734.4 1381.8 735 1381.8 735C1381.8 735 1285.8 758.9 1277.1 759.9C1268.5 760.9 1173.7 722.9 1173.7 722.9C1173.7 722.9 1136.4 706.1 1118.9 721.4C1103.7 734.7 1103 751.6 1106.6 765.7C1110.8 782.5 1125.1 795 1142.3 797.2C1181 802.1 1258.2 811.4 1274.3 809.1C1310.3 804.1 1391.9 757 1391.9 757C1391.9 757 1392.9 750.5 1390.3 743.4Z" fill="#F21111"/>
<path id="rosto" d="M1160.8 658.6C1160.8 658.6 1110.5 670.4 1103.6 639C1096.8 607.5 1085.6 587.9 1117.5 579C1149.3 570.1 1158.2 580.8 1163 590.7C1167.8 600.6 1173.7 654.7 1160.8 658.6Z" fill="#FFB27D"/>
<path id="cabelo" d="M1105.4 647.5C1104.7 648 1093.9 651.3 1073.4 610.5C1070.1 604.1 1068 590.2 1075.5 577.9C1083 565.7 1109.5 556.1 1131.6 551.9C1153.7 547.7 1159 560.1 1164.2 572.6C1169.7 585.7 1185.5 596.5 1185.5 596.5C1166.4 607.2 1143.5 591.9 1135.5 594.4C1127.6 596.9 1124.8 609.5 1124.2 613.5C1123.6 617.5 1122.6 620.8 1112.7 617.2C1102.7 613.7 1108.1 631.4 1109.7 634.8C1109.7 634.8 1111.1 643.8 1105.4 647.5Z" fill="#A9453D"/>
<path id="mao_direita" d="M974 939.8C974 939.8 971.9 964.1 970.5 967.9C969 971.6 959.2 983.2 958 983C956.9 982.8 956.2 981.9 956.8 979.6C957.4 977.2 960.8 969.9 959.7 970.1C958.6 970.3 947.4 990.8 942.9 989.7C938.4 988.5 934 973.9 936.7 963.6C939.4 953.3 957.4 937.2 958.1 935.5C964 921.4 974 939.8 974 939.8Z" fill="#ED975D"/>
<path id="mao_esquerda" d="M1380.5 741.4C1380.5 741.4 1397 721.4 1400.5 719C1404.1 716.7 1419.7 712.5 1420.6 713.4C1421.4 714.2 1421.5 715.4 1419.6 717.1C1417.6 718.8 1410.3 723.1 1411.3 723.6C1412.4 724.1 1434.6 713 1437.8 716.8C1441 720.5 1436 735.8 1427.4 743.2C1418.8 750.5 1393.3 753.7 1391.7 754.7C1378.1 763.4 1380.5 741.4 1380.5 741.4Z" fill="#ED975D"/>
</g>
<path id="Vector_35" d="M2337.5 919.4C2337.5 919.4 2350.8 931.8 2348.2 940.6C2345.6 949.4 2333.6 955.2 2331.9 966C2330.3 976.7 2323.8 982.6 2317.9 982.6C2312.1 982.6 2290 982.6 2290 982.6C2290 982.6 2285.7 975 2296.1 972.7C2306.5 970.5 2310.4 957.8 2309.8 946.1C2309.1 934.4 2310.8 918.8 2310.8 918.8L2332.9 913.6L2337.5 919.4Z" fill="#111112"/>
<path id="Vector_36" d="M2171.1 981.1C2169.8 981.8 2165 982.3 2158.5 982.6H2095.3C2095.5 980.7 2097 974 2107.3 972.3C2119 970.4 2139.2 963.7 2143.7 948.7C2143.9 948.233 2144.03 947.767 2144.1 947.3C2147.7 931.3 2173.7 952.1 2173.7 952.1C2173.7 952.1 2173.8 952.8 2173.9 953.9C2174.5 959.7 2176.1 978.6 2171.1 981.1Z" fill="#111112"/>
<path id="Vector_37" d="M2110.4 554.5C2110.4 554.5 2114.4 603.9 2119 663.2C2125.4 743.8 2133 842.7 2133.7 861.5C2135 894 2140.2 946.1 2140.2 946.1C2140.2 946.1 2152.6 958.5 2177.3 953.2C2177.3 953.2 2199.4 878.9 2205.7 800.3C2205.77 798.967 2205.87 797.667 2206 796.4C2211.8 716.3 2220.9 547.7 2220.9 547.7L2110.4 554.5Z" fill="#343434"/>
<path id="Vector_38" d="M2110.4 554.5C2110.4 554.5 2114.4 603.9 2119 663.2L2205.7 800.3C2205.77 798.967 2205.87 797.667 2206 796.4C2211.8 716.3 2220.9 547.7 2220.9 547.7L2110.4 554.5Z" fill="#232322"/>
<path id="Vector_39" d="M2128.5 560.4C2128.5 560.4 2199.8 739.1 2246.6 823.1C2293.5 907 2308.2 930.5 2308.2 930.5C2308.2 930.5 2335 919.7 2337.5 912.4C2337.5 912.4 2319.5 750.3 2288.1 710.8C2270.4 688.4 2249.6 621.4 2248.6 598C2247.6 574.6 2242.3 528.2 2242.3 528.2L2128.5 560.4Z" fill="#343434"/>
<path id="Vector_40" d="M1908.6 463.5C1908.6 463.5 1889.3 459.1 1886.1 459.3C1882.8 459.5 1871.4 464.3 1871.3 465.2C1871.1 466.1 1871.7 466.9 1873.6 467C1875.6 467.1 1882.1 466.3 1881.7 467.1C1881.2 467.9 1862.6 471.5 1862.4 475.3C1862.2 479 1872.4 486 1881 486.5C1889.7 487 1906.6 476.9 1908.1 476.8C1920.4 475.7 1908.6 463.5 1908.6 463.5Z" fill="#FFB27D"/>
<path id="Vector_41" d="M1900.4 468.4C1897.6 459.6 1898.2 458.2 1898.2 458.2C1898.2 458.2 1976.6 415.8 1983.8 411.5C1991 407.2 2072 321 2072 321L2154.9 343.8C2154.9 343.8 2026.5 441.6 2008.1 452.2C1977.7 469.6 1907.3 479.4 1907.3 479.4C1907.3 479.4 1902.5 475.3 1900.4 468.4Z" fill="#F21111"/>
<path id="Vector_42" d="M2097.1 279.1C2097.1 279.1 2068 330.3 2039.6 336.9C2039.6 336.9 2040.8 319.8 2047.7 308C2044.83 304.667 2042.33 301.6 2040.2 298.8C2033.1 289.7 2029.7 284 2029.7 284L2039.3 258.1L2045.9 240.5C2049 246.2 2052.5 251.1 2056.1 255.3C2074.7 276.7 2097.1 279.1 2097.1 279.1Z" fill="#FFB27D"/>
<path id="Vector_43" d="M2056.1 255.3C2056.1 255.3 2059.5 280.9 2040.2 298.8C2033.1 289.7 2029.7 284 2029.7 284L2039.3 258.1C2049.6 255 2056.1 255.3 2056.1 255.3Z" fill="#ED975D"/>
<path id="Vector_44" d="M2022 287.8C2022 287.8 2065.4 270.9 2054.5 244C2043.5 217.1 2041.7 196.8 2013.5 206.5C1985.3 216.1 1984.1 228.6 1985.6 238.5C1987.1 248.3 2010.4 291.5 2022 287.8Z" fill="#FFB27D"/>
<path id="Vector_45" d="M2246.5 541.7C2228.9 566.9 2097.9 600.6 2099.4 583.1C2100 576.4 2100.8 564.7 2099.4 548.7C2099.07 544.967 2098.6 541 2098 536.8C2094.7 513.9 2086.8 484.4 2069.1 450.3C2067.83 447.767 2066.47 445.2 2065 442.6C2057.8 429.4 2051.6 415.4 2046.8 401.7C2037.8 375.5 2034.1 350.4 2038.7 334C2038.7 333.933 2038.73 333.833 2038.8 333.7C2066.1 321.1 2076.8 271.9 2076.8 271.9C2076.8 271.9 2170.2 288.7 2222.6 413.3C2222.6 413.3 2261.7 519.7 2246.5 541.7Z" fill="#F21111"/>
<path id="Vector_46" d="M2099.4 548.7C2099.07 544.967 2098.6 541 2098 536.8C2094.7 513.9 2086.8 484.4 2069.1 450.3C2072.2 431.9 2076.3 416.7 2080.9 409.8C2099.6 381.9 2110.4 377.5 2110.4 377.5C2110.4 377.5 2138.4 495.4 2099.4 548.7Z" fill="#F21111"/>
<path id="Vector_47" d="M1952.1 520.7C1952.1 520.7 1926.2 522 1922.2 523.5C1918.2 524.9 1905.6 534.9 1905.8 536.2C1905.9 537.4 1906.8 538.1 1909.4 537.6C1911.9 537 1919.7 533.7 1919.5 534.8C1919.2 536 1897.1 547.2 1898.2 552C1899.3 556.8 1914.6 561.9 1925.6 559.4C1936.6 556.9 1954.4 538.2 1956.1 537.6C1971.2 531.8 1952.1 520.7 1952.1 520.7Z" fill="#FFB27D"/>
<path id="Vector_48" d="M1947.2 530.5C1942 522.1 1945.8 518.3 1945.8 518.3C1945.8 518.3 2025.6 455.7 2031.9 449.4C2038.2 443.1 2067.2 342.5 2067.2 342.5C2067.2 342.5 2077.1 301.8 2100.5 297.3C2120.8 293.4 2134.9 303.4 2144 315.2C2155 329.3 2156.1 348.6 2147 363.9C2126.6 398.3 2085.4 466.5 2073.4 478.2C2046.7 504.1 1957.2 540.4 1957.2 540.4C1957.2 540.4 1951.3 537 1947.2 530.5Z" fill="#EE9849"/>
<path id="Vector_49" d="M1947.2 530.5C1942 522.1 1945.8 518.3 1945.8 518.3C1945.8 518.3 2025.6 455.7 2031.9 449.4C2038.2 443.1 2067.2 342.5 2067.2 342.5C2067.2 342.5 2077.1 301.8 2100.5 297.3C2120.8 293.4 2134.9 303.4 2144 315.2C2155 329.3 2156.1 348.6 2147 363.9C2126.6 398.3 2085.4 466.5 2073.4 478.2C2046.7 504.1 1957.2 540.4 1957.2 540.4C1957.2 540.4 1951.3 537 1947.2 530.5Z" fill="#F21111"/>
<path id="Vector_50" d="M2060.7 194C2061 193.4 2061.9 192.8 2064.1 192.1C2064.1 192.1 2062 191.4 2059.7 192C2058.5 189 2055.5 183.9 2049.9 183.9C2049.9 183.9 2053.1 184.7 2054.3 187.9C2046.7 183.1 2032.6 181.7 1997.3 193.4C1950.8 208.9 1974 235.9 1981.1 238C1988.1 240.2 2001.1 226.3 2012.8 224.4C2024.4 222.5 2030.7 238.8 2035.2 240.1C2039.6 241.5 2037.1 237.8 2041.8 234.1C2046.4 230.4 2049.1 239.1 2049 245.2C2048.9 251.3 2058 257.1 2058 257.1C2058 257.1 2058 257.1 2063.3 247.3C2068.6 237.6 2067.2 202.1 2062.1 195.7C2061.63 195.167 2061.17 194.6 2060.7 194Z" fill="#343434"/>
<path id="Vector_51" d="M2824.2 1532.9H199.6C197.7 1532.9 196.1 1531.3 196.1 1529.4V1526.9C196.1 1525 197.7 1523.5 199.6 1523.5H2824.2C2826.1 1523.5 2827.7 1525 2827.7 1526.9V1529.4C2827.7 1531.3 2826.1 1532.9 2824.2 1532.9Z" fill="#E5E5E5"/>
<path id="Vector_52" d="M1979.8 982.6V1523.5H2391.6V982.6H1979.8Z" fill="#E6422C"/>
<g id="Vector_53">
<path d="M1852.8 982.6V1523.5H2264.7V982.6H1852.8Z" fill="#ED5743"/>
<path d="M1852.8 982.6V1523.5H2264.7V982.6H1852.8Z" fill="#ED5743"/>
</g>
<g id="game-icons:heart-drop">
<path id="Vector_54" d="M2547.77 506.384C2525.47 506.424 2504.03 522.988 2503.14 549.902C2501.55 598.22 2567.88 610.458 2588.41 658.691C2607.84 610.463 2672.42 595.315 2673.94 549.902C2675.46 504.602 2620.21 493.557 2593.49 524.51C2590.91 530.053 2590.7 535.594 2591.53 538.649C2599.39 567.678 2614.98 575.678 2614.98 598.799C2614.98 611.88 2602.05 621.339 2588.43 621.339C2575.11 621.339 2561.34 611.217 2561.34 597.441C2561.34 573.342 2577.22 568.668 2585.39 538.525C2586.35 534.963 2584.89 526.77 2580.1 520.208C2580.09 520.197 2580.08 520.187 2580.06 520.175C2570.84 510.681 2559.19 506.363 2547.77 506.384H2547.77ZM2594.39 576.483C2597.51 579.451 2599.45 583.615 2599.45 588.231C2599.45 597.239 2592.07 604.538 2582.96 604.538C2581.48 604.538 2580.05 604.346 2578.69 603.988C2580.78 602.496 2582.18 599.763 2582.18 596.642C2582.18 591.924 2578.97 588.107 2575.04 588.107C2571.1 588.107 2567.91 591.924 2567.91 596.642C2567.91 598.117 2568.22 599.509 2568.77 600.719C2571.08 609.209 2578.88 615.42 2588.22 615.42C2599.39 615.42 2608.38 606.529 2608.38 595.474C2608.39 591.25 2607.04 587.131 2604.52 583.717C2602.01 580.302 2598.46 577.769 2594.39 576.483H2594.39Z" fill="#ED5743"/>
</g>
<path id="Vector_55" d="M2391.6 982.6V1063.5L2264.7 982.6H2391.6Z" fill="#D01B1B"/>
<g id="game-icons:heart-drop_2">
<path id="Vector_56" d="M207.766 506.384C185.47 506.424 164.026 522.988 163.139 549.902C161.548 598.22 227.882 610.458 248.409 658.691C267.841 610.463 332.417 595.315 333.939 549.902C335.457 504.602 280.208 493.557 253.494 524.51C250.909 530.053 250.703 535.594 251.531 538.649C259.393 567.678 274.984 575.678 274.984 598.799C274.984 611.88 262.048 621.339 248.431 621.339C235.114 621.339 221.344 611.217 221.344 597.441C221.344 573.342 237.224 568.668 245.389 538.525C246.353 534.963 244.887 526.77 240.098 520.208C240.087 520.197 240.075 520.187 240.064 520.175C230.844 510.681 219.193 506.363 207.766 506.384H207.766ZM254.391 576.483C257.507 579.451 259.454 583.615 259.454 588.231C259.454 597.239 252.066 604.538 242.96 604.538C241.485 604.538 240.052 604.346 238.691 603.988C240.775 602.496 242.176 599.763 242.176 596.642C242.176 591.924 238.973 588.107 235.035 588.107C231.097 588.107 227.906 591.924 227.906 596.642C227.906 598.117 228.22 599.509 228.769 600.719C231.082 609.209 238.878 615.42 248.215 615.42C259.39 615.42 268.377 606.529 268.377 595.474C268.388 591.25 267.037 587.131 264.523 583.717C262.008 580.302 258.459 577.769 254.391 576.483H254.391Z" fill="#ED5743"/>
</g>
<g id="game-icons:heart-drop_3">
<path id="Vector_57" d="M404.412 250.713C378.04 250.756 352.676 268.401 351.628 297.069C349.745 348.538 428.205 361.575 452.484 412.953C475.468 361.58 551.848 345.444 553.648 297.069C555.444 248.815 490.096 237.049 458.499 270.021C455.441 275.926 455.197 281.828 456.176 285.082C465.476 316.005 483.917 324.527 483.917 349.156C483.917 363.089 468.616 373.166 452.51 373.166C436.758 373.166 420.471 362.384 420.471 347.709C420.471 322.038 439.254 317.059 448.911 284.95C450.053 281.157 448.318 272.429 442.654 265.439C442.641 265.427 442.627 265.416 442.613 265.404C431.708 255.29 417.928 250.691 404.412 250.713H404.412ZM459.56 325.384C463.245 328.546 465.548 332.981 465.548 337.899C465.548 347.494 456.81 355.268 446.038 355.268C444.294 355.268 442.599 355.064 440.99 354.683C443.454 353.094 445.112 350.182 445.112 346.858C445.112 341.832 441.323 337.766 436.666 337.766C432.008 337.766 428.233 341.832 428.233 346.858C428.233 348.429 428.604 349.911 429.254 351.201C431.99 360.245 441.211 366.86 452.255 366.86C465.472 366.86 476.102 357.389 476.102 345.614C476.114 341.114 474.518 336.727 471.543 333.09C468.569 329.452 464.371 326.754 459.559 325.384H459.56Z" fill="#ED5743"/>
</g>
<g id="game-icons:heart-drop_4">
<path id="Vector_58" d="M2781.71 106.267C2756.06 106.311 2731.38 124.406 2730.37 153.806C2728.53 206.588 2804.85 219.957 2828.47 272.646C2850.83 219.962 2925.12 203.415 2926.88 153.806C2928.62 104.32 2865.06 92.2548 2834.32 126.068C2831.35 132.123 2831.11 138.176 2832.06 141.513C2841.11 173.225 2859.05 181.964 2859.05 207.221C2859.05 221.51 2844.16 231.843 2828.5 231.843C2813.17 231.843 2797.33 220.786 2797.33 205.737C2797.33 179.411 2815.6 174.306 2825 141.378C2826.11 137.487 2824.42 128.536 2818.91 121.369C2818.9 121.356 2818.88 121.345 2818.87 121.332C2808.26 110.961 2794.86 106.244 2781.71 106.267H2781.71ZM2835.35 182.843C2838.94 186.085 2841.18 190.633 2841.18 195.677C2841.18 205.517 2832.68 213.49 2822.2 213.49C2820.5 213.49 2818.86 213.28 2817.29 212.889C2819.69 211.26 2821.3 208.273 2821.3 204.865C2821.3 199.71 2817.61 195.541 2813.08 195.541C2808.55 195.541 2804.88 199.71 2804.88 204.865C2804.88 206.476 2805.24 207.996 2805.87 209.318C2808.54 218.593 2817.51 225.377 2828.25 225.377C2841.1 225.377 2851.45 215.664 2851.45 203.589C2851.46 198.974 2849.9 194.475 2847.01 190.745C2844.12 187.015 2840.03 184.247 2835.35 182.843H2835.35Z" fill="#ED5743"/>
</g>
<g id="game-icons:heart-drop_5">
<path id="Vector_59" d="M2429.45 260.291C2413.62 260.319 2398.41 271.932 2397.78 290.801C2396.65 324.676 2443.72 333.256 2458.29 367.071C2472.08 333.259 2517.91 322.639 2518.99 290.801C2520.07 259.041 2480.86 251.298 2461.9 272.999C2460.06 276.885 2459.92 280.77 2460.51 282.911C2466.09 303.264 2477.15 308.872 2477.15 325.082C2477.15 334.253 2467.97 340.885 2458.31 340.885C2448.86 340.885 2439.08 333.788 2439.08 324.13C2439.08 307.234 2450.35 303.958 2456.15 282.825C2456.83 280.328 2455.79 274.583 2452.39 269.983C2452.38 269.975 2452.38 269.968 2452.37 269.96C2445.82 263.303 2437.56 260.276 2429.45 260.291H2429.45ZM2462.54 309.437C2464.75 311.517 2466.13 314.436 2466.13 317.673C2466.13 323.989 2460.89 329.105 2454.42 329.105C2453.38 329.105 2452.36 328.971 2451.39 328.72C2452.87 327.674 2453.87 325.758 2453.87 323.57C2453.87 320.262 2451.59 317.586 2448.8 317.586C2446 317.586 2443.74 320.262 2443.74 323.57C2443.74 324.604 2443.96 325.579 2444.35 326.428C2445.99 332.38 2451.53 336.734 2458.15 336.734C2466.08 336.734 2472.46 330.501 2472.46 322.751C2472.47 319.789 2471.51 316.902 2469.73 314.508C2467.94 312.114 2465.42 310.338 2462.54 309.437H2462.54Z" fill="#ED5743"/>
</g>
</g>
<defs>
<clipPath id="clip0_0_1">
<rect width="2975" height="1700" fill="white"/>
</clipPath>
</defs>
</svg>
